<svg width="107" height="104" viewBox="0 0 107 104" fill="none" xmlns="http://www.w3.org/2000/svg">
<path d="M14.5181 0.162598C9.1484 1.3361 6.0072 6.93099 7.76153 12.1584C8.4846 14.3158 10.1797 16.3072 12.1474 17.3147C13.9965 18.263 15.6679 18.5949 17.5052 18.3697C21.5591 17.8718 24.6529 15.0507 25.5538 11.056C25.8264 9.83512 25.7316 7.73704 25.3641 6.56353C24.8662 4.97515 24.2262 3.94389 22.9934 2.69926C21.9858 1.67986 21.725 1.4902 20.6227 0.956787C19.9352 0.624887 18.9987 0.269279 18.5246 0.17445C17.4933 -0.0507679 15.5138 -0.0626202 14.5181 0.162598ZM18.0267 3.61199C19.0698 3.92018 19.8048 4.35876 20.5753 5.12925C21.3694 5.92344 21.8317 6.71763 22.1044 7.7726C23.0289 11.3287 20.2671 14.9203 16.5924 14.9322C15.4664 14.944 14.7077 14.7662 13.8069 14.2921C11.6851 13.1778 10.4167 10.6886 10.7842 8.32971C11.1279 6.08939 12.9771 4.06243 15.1226 3.55272C15.8812 3.37492 17.3274 3.41048 18.0267 3.61199Z" fill="#7C7C7C"/>
<path d="M15.0256 18.832C12.1452 19.3536 9.59664 21.3331 8.41129 23.9765C7.65266 25.6597 7.68822 24.581 7.70007 43.2267V60.1892L7.99641 61.2086C8.16236 61.7657 8.4587 62.5717 8.64836 63.0103L9.00396 63.7927V80.4943C9.00396 98.9622 8.9684 98.1799 9.76259 99.8157L10.1419 100.622H5.8035C1.53621 100.622 1.46509 100.622 0.943528 100.883C-0.182562 101.463 -0.324805 102.791 0.647188 103.704L0.967235 104H53.3364H105.705L106.026 103.704C106.998 102.791 106.855 101.463 105.729 100.894C105.208 100.622 105.148 100.622 100.371 100.622C97.7162 100.622 95.5351 100.61 95.5351 100.586C95.5351 100.574 95.6536 100.266 95.784 99.9105C96.1396 98.9978 96.2226 97.2672 95.95 96.2478C95.7129 95.3113 95.4166 94.7068 94.812 93.9126L94.3498 93.3081V88.1399V82.9599H96.353C98.2259 82.9599 98.3681 82.948 98.7474 82.6873C99.5535 82.1539 99.4586 82.9717 100.573 66.4953C101.379 54.535 101.569 51.3227 101.462 51.0026C101.308 50.5641 100.763 50.0425 100.324 49.9358C100.087 49.8765 89.715 50.3388 82.7332 50.7182C81.5242 50.7893 75.1232 51.1093 68.5089 51.4294C61.8946 51.7613 54.9366 52.105 53.0637 52.1998C51.1909 52.2947 49.4484 52.3777 49.1995 52.3777C48.832 52.3777 48.4527 52.1643 46.8643 51.0619C45.833 50.3388 44.9796 49.7225 44.9914 49.675C44.9914 49.6276 45.1455 49.272 45.3352 48.8808C45.6552 48.2289 45.6789 48.063 45.6908 46.8065C45.6908 45.4552 45.6789 45.4196 45.2522 44.5424C44.5647 43.1437 43.3675 42.1599 41.8977 41.7806C41.3168 41.6265 40.3685 41.5909 36.5635 41.5909H31.9288L31.3954 41.259C31.0161 41.0101 30.1508 39.9907 28.1475 37.4066L25.4212 33.8861L25.3501 30.0692C25.2789 25.7545 25.2434 25.5411 24.3662 23.7513C23.2164 21.4398 21.3673 19.8514 18.9017 19.0691C17.9771 18.7846 15.9739 18.6542 15.0256 18.832ZM17.7163 22.3288C18.6765 22.5896 19.4707 23.04 20.1937 23.775C21.3435 24.9248 21.9244 26.4183 21.9244 28.2912V29.2869L21.225 28.5875C18.2142 25.5767 13.1764 26.7976 11.9437 30.8515C11.4932 32.3451 11.7777 34.3246 12.643 35.6167C12.8327 35.8893 14.99 38.4853 17.4556 41.4012L21.9244 46.6879V53.4208C21.9244 59.4187 21.9481 60.3077 22.1496 61.6827C22.683 65.2862 23.1808 66.6849 26.1087 72.8251C27.4126 75.5633 28.7283 78.337 29.0365 78.9889C29.3447 79.6409 30.7316 82.545 32.1185 85.4491C37.2985 96.307 37.0851 95.7736 36.931 97.0538C36.6939 99.0808 35.2122 100.479 33.1971 100.598C32.0236 100.657 31.182 100.361 30.3049 99.5549C29.6173 98.9267 30.0322 99.7683 16.8866 72.1731C15.476 69.2097 13.6861 65.4759 12.9156 63.8756C12.1452 62.2754 11.4339 60.687 11.3273 60.3314C11.1613 59.7506 11.1376 57.8896 11.1376 43.1793C11.1376 27.3192 11.1495 26.6435 11.3628 25.956C12.1926 23.2771 15.0611 21.6413 17.7163 22.3288ZM17.8941 30.4485C18.1312 30.5078 18.5105 30.7686 18.7476 31.0056C18.9728 31.2546 21.1302 33.9928 23.5246 37.0865C25.919 40.1803 28.0764 42.9185 28.3134 43.1674C28.8706 43.772 29.9374 44.495 30.696 44.7914C31.265 45.0166 31.5613 45.0284 36.125 45.0284C40.5938 45.0284 40.9849 45.0403 41.3642 45.2537C42.5615 45.8819 42.6326 47.5532 41.4946 48.2526C41.0679 48.5252 41.0679 48.5252 35.3782 48.5489C32.2488 48.5608 29.3921 48.5252 29.0365 48.466C28.1119 48.3119 27.5904 48.0392 27.1162 47.4821C26.891 47.2095 24.1647 43.9853 21.0709 40.3226C16.9696 35.4626 15.4049 33.5305 15.3101 33.1986C14.9426 31.9895 15.3338 31.0531 16.4125 30.5552C16.9459 30.3063 17.3015 30.2826 17.8941 30.4485ZM25.9309 51.0145C26.5354 51.4175 27.5548 51.7494 28.6335 51.8917C29.7122 52.0458 40.5938 52.0576 41.3642 51.9154L41.8858 51.8087L44.2328 53.4208C45.6671 54.4165 46.6035 55.1395 46.6272 55.2818C46.6628 55.4122 47.0421 59.7269 47.4688 64.8832C48.9742 82.8295 48.8794 81.8101 49.1639 82.2131C49.721 82.9955 49.235 82.9599 59.7847 82.9599H69.3387V89.4675V95.987L68.1533 96.0225L66.9561 96.0581L66.482 95.0743C65.6522 93.3555 64.1824 92.1464 62.3451 91.6723C61.3494 91.4115 59.7254 91.4826 58.7534 91.8264C56.9754 92.4665 55.5174 93.9126 54.8536 95.7025C54.4862 96.7338 54.4743 98.8318 54.8536 99.8512C54.9959 100.231 55.1144 100.574 55.1144 100.586C55.1144 100.61 51.5702 100.622 47.2318 100.622C42.8934 100.622 39.3491 100.598 39.3491 100.574C39.3491 100.551 39.5151 100.183 39.7047 99.7683C40.4278 98.2392 40.5938 96.0818 40.1078 94.4579C40.0129 94.1023 38.3771 90.5462 36.4806 86.5752C34.584 82.5924 31.668 76.4641 29.9848 72.9436C26.9977 66.6612 26.4287 65.3099 25.9664 63.2829C25.4449 61.0308 25.3619 59.9758 25.3619 55.2344C25.3619 52.757 25.3856 50.7182 25.4212 50.7182C25.4567 50.7182 25.682 50.8485 25.9309 51.0145ZM97.977 53.7645C97.9532 53.9542 97.8584 55.1751 97.7754 56.4908L97.6332 58.8853L97.0287 58.9445C96.4953 59.0038 87.0242 59.2527 85.7559 59.2527H85.2818L85.4003 56.6805L85.5188 54.0964L85.8744 54.049C86.3723 54.0016 96.2582 53.48 97.2302 53.4563L98.0481 53.4445L97.977 53.7645ZM82.022 54.8906C82.0102 55.8863 81.8087 59.2646 81.7613 59.3239C81.702 59.3831 70.3463 59.7269 68.426 59.7269H67.0865V57.3562C67.0865 56.0523 67.1221 54.9854 67.1813 54.9736C67.8214 54.9143 80.0188 54.2979 80.8722 54.2861L82.022 54.2742V54.8906ZM63.649 57.4628V59.8217L62.677 59.8928C62.1317 59.9284 60.4959 59.9877 59.0261 60.0232C57.5562 60.0469 55.0433 60.118 53.443 60.1536L50.5271 60.2366L50.3848 58.3519C50.3018 57.3206 50.2189 56.3249 50.1833 56.1352C50.1359 55.8863 50.1596 55.8152 50.3374 55.8033C50.4559 55.8033 53.3482 55.6492 56.7739 55.4714C60.1996 55.2818 63.1393 55.1277 63.3289 55.1158L63.649 55.104V57.4628ZM97.1116 66.2108C96.9694 68.2852 96.8509 69.9921 96.8509 70.0039C96.839 70.0276 94.1127 70.0395 90.7937 70.0395H84.7365L84.8076 68.8778C84.9025 67.1354 85.104 63.2592 85.104 62.9748C85.104 62.7258 85.1395 62.714 89.2883 62.6073C91.576 62.548 94.3379 62.4888 95.4166 62.4769L97.3843 62.4532L97.1116 66.2108ZM81.6072 63.8401C81.5242 65.0728 81.3108 69.3875 81.3108 69.7669V70.0395H74.1987H67.0865V66.6731V63.2948L67.5962 63.2355C67.8689 63.2 70.8441 63.1051 74.1987 63.034C77.5532 62.9629 80.3151 62.8799 80.327 62.8681C80.3507 62.8562 80.6589 62.8325 81.0145 62.8207L81.6783 62.797L81.6072 63.8401ZM63.649 66.6612V70.0395H57.4851H51.3213V69.7669C51.3213 69.6246 51.2146 68.2022 51.0723 66.6257C50.9419 65.0373 50.8471 63.7215 50.8708 63.6978C50.8945 63.686 53.7394 63.5911 57.1888 63.4963C60.65 63.4015 63.5067 63.3067 63.566 63.3067C63.6134 63.2948 63.649 64.8002 63.649 66.6612ZM13.6506 73.4178C14.2077 74.5913 15.9739 78.3133 17.586 81.6797L20.5138 87.8199L20.4782 92.7628L20.4427 97.7176L20.1463 98.3103C19.9922 98.6303 19.6129 99.14 19.3166 99.4364C18.558 100.207 17.8112 100.539 16.7206 100.598C15.4168 100.669 14.6226 100.349 13.6743 99.389C12.3941 98.0969 12.5008 99.4601 12.4652 84.2638C12.4534 76.8316 12.4771 71.1063 12.5363 71.1656C12.5956 71.2367 13.0934 72.2443 13.6506 73.4178ZM63.649 76.4997V79.5224H57.9C52.5066 79.5224 52.151 79.5105 52.151 79.309C52.151 79.2023 52.0443 77.9103 51.9139 76.4404C51.7835 74.9824 51.6769 73.7141 51.6769 73.6311C51.6769 73.5126 52.9096 73.477 57.6629 73.477H63.649V76.4997ZM81.0263 75.6936C80.9908 76.9264 80.9196 78.2777 80.8841 78.7163L80.8011 79.5224H73.9497H67.0865V76.4997V73.477H74.092H81.1093L81.0263 75.6936ZM96.6019 73.8563C96.6019 74.0697 96.519 75.338 96.4241 76.6775C96.3293 78.017 96.2463 79.2023 96.2463 79.309C96.2463 79.5105 95.8789 79.5224 90.2484 79.5224H84.2505L84.3216 79.0719C84.3572 78.8348 84.4165 77.7206 84.452 76.6182C84.4876 75.504 84.5468 74.3542 84.5824 74.0341L84.6535 73.477H90.6277H96.6019V73.8563ZM90.9122 87.2509V91.5537L90.0588 91.5182C87.5814 91.3996 85.2818 92.7747 84.1794 95.0387L83.7171 95.9988H78.2763H72.8355L72.7999 89.4794L72.7762 82.9599H81.8442H90.9122V87.2509ZM61.7643 95.098C62.4518 95.3469 63.0326 95.8566 63.3645 96.5441C64.2417 98.3458 63.0326 100.456 61.0293 100.598C58.9905 100.752 57.5207 98.8793 58.1015 96.8997C58.2793 96.2952 59.275 95.2758 59.8558 95.0861C60.4248 94.9083 61.2546 94.9083 61.7643 95.098ZM90.6989 95.0743C91.3982 95.2758 92.2754 96.1174 92.5006 96.793C92.9985 98.2392 92.4176 99.6853 91.0782 100.337C89.2764 101.214 87.1665 100.005 87.0242 98.0021C86.8701 95.9751 88.743 94.4816 90.6989 95.0743ZM25.8242 98.9267L26.6421 100.622H24.7455C23.7024 100.622 22.8727 100.586 22.8964 100.527C23.6906 98.9859 23.9276 98.0139 23.9395 96.3544L23.9513 95.1098L24.4847 96.1766C24.7692 96.7575 25.3738 98.0021 25.8242 98.9267ZM83.8949 99.875C83.9542 100.065 84.049 100.302 84.0964 100.408C84.1794 100.61 83.7171 100.622 75.3248 100.622C70.4529 100.622 66.4938 100.586 66.5175 100.527C66.5413 100.479 66.6361 100.242 66.7309 99.9935L66.8969 99.5549H75.3366H83.7764L83.8949 99.875Z" fill="#7C7C7C"/>
<path d="M11.0188 102.277C10.4261 102.87 10.7699 103.984 11.5403 103.984C12.1093 103.984 12.4886 103.392 12.3227 102.752C12.1686 102.123 11.4337 101.863 11.0188 102.277Z" fill="#7C7C7C"/>
</svg>
