<svg width="105" height="105" viewBox="0 0 105 105" fill="none" xmlns="http://www.w3.org/2000/svg">
<path d="M42.3445 0.27327C41.9182 0.437241 41.164 0.863556 40.6721 1.22428C40.1802 1.58501 39.3275 1.88015 38.8028 1.88015C36.1138 1.88015 31.1948 4.11011 28.2761 6.66799C25.128 9.42264 22.3733 13.9809 21.1928 18.4408C20.8976 19.523 20.5697 21.9169 20.4385 23.7862L20.2418 27.1639L19.1924 27.5902C17.4543 28.3445 17.0608 29.1971 17.0608 32.4108C17.0608 35.4278 17.5855 36.674 19.0284 37.1331C19.6187 37.3299 19.5531 37.4282 18.5693 38.2809C17.1592 39.527 16.6017 41.5274 16.7984 44.446C17.0608 47.8238 18.143 50.2505 20.3401 52.3821C21.4551 53.4642 22.4061 54.776 22.7668 55.6614C23.062 56.4812 24.0458 58.4816 24.9312 60.1541L26.5381 63.1711L19.9138 67.0079C16.2737 69.1067 12.2074 71.5006 10.8956 72.2877C5.18956 75.7966 1.74625 80.814 0.467307 87.4055C-0.155769 90.7176 -0.155769 100.097 0.467307 101.605C1.0248 102.95 2.13977 104.032 3.38592 104.491C4.04179 104.753 16.7329 104.852 44.181 104.852C80.2538 104.852 84.1234 104.786 85.14 104.327C86.7796 103.54 87.6979 102.064 87.8946 99.9325L88.0586 98.1289L94.9452 97.9649C102.717 97.7682 103.111 97.6698 104.357 95.2431C104.947 94.0297 105.013 93.4722 104.882 88.6516C104.718 82.5848 104.16 80.3549 102.061 77.1083C99.9954 73.9273 98.4541 72.6812 88.8784 66.4832L79.7619 60.5476L81.172 58.2521C81.959 57.0059 82.91 55.1367 83.3363 54.0873C83.7627 53.0707 84.5825 51.8246 85.2056 51.2671C86.878 49.7914 87.6651 47.9877 87.829 45.1019C87.9602 42.9375 87.8618 42.4128 87.2716 41.3635C86.5829 40.2157 86.5829 40.1173 87.1076 39.5598C87.8618 38.74 88.1242 35.6574 87.5667 34.3457C87.3371 33.7882 86.878 33.1323 86.5173 32.9027C86.091 32.6076 85.7303 31.5582 85.3039 29.2299C84.4841 24.9995 83.5987 22.6712 81.8606 20.3101C79.5651 17.1947 76.3513 15.0631 72.7768 14.3089C71.793 14.1121 70.4485 13.653 69.7926 13.3251C68.3169 12.5708 67.3659 12.538 66.1198 13.1939C65.5951 13.489 65.136 13.653 65.1032 13.6202C65.0704 13.5546 64.6769 12.866 64.2178 12.0461C61.2336 6.83196 55.921 3.02792 50.3461 2.04411C48.9688 1.81456 47.5915 1.42104 47.2963 1.1259C46.0502 0.0765076 43.8202 -0.317009 42.3445 0.27327ZM45.6239 4.20848C45.7878 4.56921 46.1486 7.58621 46.4109 10.9639C46.8044 16.0797 46.9684 17.1947 47.4275 17.5226C48.2474 18.1129 49.0016 18.0473 49.6575 17.3259C50.1822 16.7356 50.215 16.3093 49.887 12.1445C49.6903 9.6194 49.5263 7.06152 49.5263 6.40565V5.22508L51.1332 5.6514C55.4947 6.79916 59.6923 10.4392 61.955 14.9975C63.5619 18.2769 64.2833 21.3595 64.2833 25.0651V27.7542L62.4141 27.9509C58.5445 28.41 57.7575 28.8692 58.1838 30.5088C58.4789 31.7222 59.2659 31.8206 63.4307 31.2303C68.2514 30.5744 67.8906 30.476 67.8906 32.3781C67.8906 33.2635 67.8578 34.0177 67.825 34.0177C67.7595 34.0177 65.4639 34.3129 62.6765 34.6736C50.8052 36.2149 39.098 36.3461 28.0466 35.0015C19.6515 33.9849 20.3401 34.2473 20.3401 32.3125V30.64L21.7503 30.8368C30.1126 32.0501 31.162 31.9517 31.162 30.0497C31.162 28.8364 30.6373 28.6068 27.0956 28.1477C25.4559 27.9181 24.013 27.6558 23.849 27.5574C23.4227 27.2951 23.849 21.7202 24.4721 19.3263C26.1446 12.7676 31.6867 6.79916 37.3599 5.52022C38.3109 5.32346 38.7045 5.32346 38.7045 5.6186C38.7045 5.81536 38.4749 8.86515 38.2126 12.3741C37.5567 21.1299 37.5239 22.8024 37.9502 23.2287C38.5077 23.7862 40.0818 23.6878 40.5081 23.0975C40.7377 22.8024 41.1312 19.0311 41.4591 13.9481C41.787 9.19308 42.1806 4.99553 42.3445 4.56921C42.902 3.19189 44.9352 2.96233 45.6239 4.20848ZM68.8744 16.8012C69.104 17.0635 69.6943 17.2931 70.1862 17.2931C72.3177 17.2931 75.3675 18.572 77.204 20.2773C79.8602 22.704 80.9424 24.8028 81.8606 29.4266C82.6805 33.5914 83.3691 35.6574 83.9266 35.6574C84.1234 35.6574 84.2873 36.0181 84.2873 36.4444C84.2873 37.1987 84.1562 37.2315 80.9424 37.5922C79.0732 37.789 77.04 38.0513 76.4169 38.1169C75.3675 38.2481 74.1214 39.2319 74.1214 39.9533C74.1214 40.1173 74.4165 40.5436 74.81 40.9371C75.4003 41.5274 75.7611 41.593 77.204 41.429C83.1396 40.7732 82.9428 40.7404 83.2708 41.6258C83.4347 42.0521 83.7954 42.6096 84.0906 42.8392C85.3039 43.8558 84.189 48.4468 82.5821 49.0699C81.5655 49.4634 81.172 49.9553 80.6801 51.5622C79.4667 55.4318 75.4331 60.9083 72.6785 62.3841C70.6781 63.4662 70.7109 65.565 72.7113 65.7618C73.4327 65.8274 74.1214 65.5322 75.4659 64.5156C76.4169 63.7942 77.4335 63.2695 77.6631 63.3679C77.9254 63.4662 82.2214 66.1881 87.2716 69.4674C97.0768 75.8294 98.3557 76.9115 100.028 80.4204C101.176 82.8472 101.668 85.6018 101.668 89.9305C101.668 94.9151 102.029 94.6856 94.2566 94.6856H87.8946V93.0787C87.8946 91.7342 87.993 91.4063 88.5833 91.2423C89.4687 90.9471 89.8622 89.7994 89.8622 87.6022C89.8622 85.4706 89.0096 84.3229 87.6979 84.6508C87.1404 84.8148 86.9108 84.7164 86.9108 84.3885C86.9108 83.2735 84.1562 78.5512 82.2869 76.518C79.8274 73.8618 78.5813 72.9763 69.5303 67.795C65.6607 65.565 62.2829 63.5646 62.0206 63.3351C61.6599 63.0071 61.7583 62.6136 62.8076 60.9411C63.4635 59.8262 64.4801 57.7274 65.0704 56.2845C65.8574 54.3497 66.3821 53.497 67.1036 53.0707C67.6283 52.7428 68.4809 51.8902 68.9728 51.1687C72.0226 46.7416 72.2194 40.0189 69.3335 38.1169L68.3169 37.4282L69.268 37.0019C70.6453 36.3789 71.17 35.0999 71.17 32.3125C71.17 29.4266 70.4485 27.9509 68.8416 27.5574L67.825 27.2623L67.6939 24.3764C67.6283 22.8024 67.3331 20.5396 67.0708 19.3591C66.6773 17.7522 66.6773 17.0963 66.9396 16.7684C67.4315 16.1781 68.3497 16.1781 68.8744 16.8012ZM31.6539 38.7728C40.2785 39.6254 54.8716 39.2975 62.8732 38.0841L64.2833 37.8874V39.0023C64.2833 40.478 65.136 41.2651 66.5789 41.1667C67.5955 41.0683 67.6939 41.1667 67.8906 42.1177C68.1858 43.4294 67.6939 46.5448 67.0052 47.9221C66.2837 49.3651 65.5951 50.0865 64.4145 50.5784C63.5291 50.9391 63.2668 51.3655 62.6765 53.1035C60.3153 60.1541 55.0356 67.0079 50.051 69.4346C45.7878 71.5334 42.2789 71.5334 38.1142 69.4346C32.9984 66.8768 28.3745 61.0067 25.5871 53.5298C24.8656 51.5294 24.5705 51.1359 23.4555 50.5456C21.2584 49.3979 19.5203 44.8724 20.1762 41.8881C20.3729 40.9699 20.5041 40.8716 21.3239 41.0683C22.7341 41.3962 23.5867 40.7732 23.8162 39.2319L24.0458 37.8874L25.3903 38.0841C26.1446 38.2153 28.9648 38.5104 31.6539 38.7728ZM35.2612 71.7302C40.6065 74.8784 45.7551 75.1735 51.2316 72.6156C53.4287 71.599 54.7077 70.6152 57.3967 67.9589C59.4627 65.9257 59.5939 65.8602 60.2825 66.3521C61.004 66.844 61.004 66.9423 61.004 75.6982V84.5196H44.1154H27.2268V75.567C27.2268 66.7784 27.2268 66.5816 27.9154 66.2865C28.5057 66.0241 28.932 66.3193 30.9652 68.2869C32.2769 69.533 34.2118 71.1071 35.2612 71.7302ZM23.6195 76.6492V84.5196H20.9632C16.864 84.5196 17.0608 84.8148 17.0608 78.1905V72.55L20.2745 70.6808C22.0126 69.6642 23.4883 68.8116 23.5539 68.8116C23.5867 68.7788 23.6195 72.3205 23.6195 76.6492ZM67.7922 70.6808L71.006 72.5828L71.1044 77.9281C71.2028 84.6508 71.3011 84.5196 67.1692 84.5196H64.2833V76.6492C64.2833 72.3205 64.3489 68.7788 64.4145 68.7788C64.4801 68.7788 66.0214 69.6314 67.7922 70.6808ZM14.011 84.8476C14.4045 85.7658 15.5195 86.848 16.6345 87.4382C17.1264 87.7006 24.964 87.799 44.2138 87.799H71.0716L72.1866 87.0447C74.1214 85.7658 74.4493 84.6508 74.4493 79.3383C74.4493 76.7804 74.5477 74.6816 74.6461 74.6816C75.2691 74.6816 79.27 77.9281 80.4177 79.3711C82.0246 81.4043 83.7299 85.0115 84.2546 87.4055C84.4513 88.3565 84.6153 91.7014 84.6153 94.8496C84.6153 100.359 84.5825 100.556 83.8938 101.048C83.238 101.507 78.9092 101.572 43.9514 101.572C12.3713 101.572 4.59928 101.474 4.14017 101.146C3.61548 100.752 3.58268 100.097 3.61548 94.5216C3.61548 91.1111 3.81224 87.6678 4.009 86.848C4.96001 82.7488 8.14097 78.1249 11.6171 75.7966L13.2895 74.6816L13.4863 79.3383C13.5847 81.9289 13.847 84.3885 14.011 84.8476Z" fill="#7C7C7C"/>
<path d="M95.3387 85.1103C94.9124 85.5694 94.7812 86.3564 94.7812 88.0617C94.7812 90.0949 94.8796 90.4556 95.5027 90.8819C97.2408 92.0953 98.0606 91.1442 98.0606 87.9633C98.0606 86.1924 97.9294 85.4054 97.5359 85.0447C96.8472 84.356 95.9946 84.3888 95.3387 85.1103Z" fill="#7C7C7C"/>
<path d="M9.05932 91.9298C8.43625 92.5201 8.33787 96.2914 8.86256 97.3407C9.25608 98.0622 10.7974 98.1934 11.4204 97.5703C11.9451 97.0456 11.9451 92.3234 11.4204 91.7987C10.863 91.2412 9.6496 91.3068 9.05932 91.9298Z" fill="#7C7C7C"/>
<path d="M17.456 91.8008C16.9313 92.3255 16.9313 97.0478 17.456 97.5725C17.9479 98.0644 19.4564 98.0644 19.9483 97.5725C20.4402 97.0806 20.473 92.9158 20.0139 92.0304C19.6204 91.3089 18.0791 91.1778 17.456 91.8008Z" fill="#7C7C7C"/>
<path d="M25.9795 91.7987C25.4548 92.3234 25.4548 97.0456 25.9795 97.5703C26.6025 98.1934 28.1438 98.0622 28.5373 97.3407C29.062 96.2914 28.9637 92.5201 28.3406 91.9298C27.7503 91.3068 26.5369 91.2412 25.9795 91.7987Z" fill="#7C7C7C"/>
<path d="M34.3059 92.1276C33.978 92.5867 33.7812 93.5705 33.7812 94.6855C33.7812 96.7843 34.4371 97.9648 35.5521 97.9648C36.831 97.9648 37.3885 96.981 37.3885 94.8167C37.3885 92.5539 36.7655 91.4062 35.5849 91.4062C35.1586 91.4062 34.5683 91.7341 34.3059 92.1276Z" fill="#7C7C7C"/>
<path d="M42.8328 91.9316C42.2097 92.5219 42.1113 96.2931 42.636 97.3425C43.0623 98.0968 44.6692 98.1952 45.2595 97.4737C45.7514 96.8834 45.7514 92.4891 45.2267 91.866C44.7348 91.2429 43.4558 91.2757 42.8328 91.9316Z" fill="#7C7C7C"/>
<path d="M51.3615 91.932C50.7057 92.5551 50.6073 96.9494 51.2304 97.5725C51.7223 98.0644 53.2308 98.0644 53.7227 97.5725C53.9522 97.3429 54.1162 96.1952 54.1162 94.6867C54.1162 93.1782 53.9522 92.0304 53.7227 91.8008C53.1652 91.2433 51.9518 91.3089 51.3615 91.932Z" fill="#7C7C7C"/>
<path d="M59.7607 91.7997C59.5312 92.0292 59.3672 93.177 59.3672 94.6855C59.3672 97.4074 59.6623 97.9648 61.0724 97.9648C62.253 97.9648 62.6465 97.1778 62.6465 94.6855C62.6465 93.5705 62.4826 92.39 62.3186 92.0292C61.9251 91.3078 60.3838 91.1766 59.7607 91.7997Z" fill="#7C7C7C"/>
<path d="M68.1864 91.9307C67.6617 92.5866 67.6945 96.8497 68.252 97.5056C68.7439 98.1287 70.0228 98.0959 70.6459 97.44C71.0394 97.0793 71.1706 96.2922 71.1706 94.6854C71.1706 93.0785 71.0394 92.2914 70.6459 91.9307C69.99 91.2421 68.7439 91.2749 68.1864 91.9307Z" fill="#7C7C7C"/>
<path d="M76.6114 92.1283C75.8899 93.1449 75.8899 96.7522 76.6114 97.4409C77.3001 98.1295 78.4806 98.0967 79.1365 97.3753C79.53 96.949 79.694 96.1619 79.694 94.8174C79.694 92.5546 79.0709 91.4069 77.8903 91.4069C77.464 91.4069 76.8738 91.7348 76.6114 92.1283Z" fill="#7C7C7C"/>
</svg>
