<svg width="112" height="105" viewBox="0 0 112 105" fill="none" xmlns="http://www.w3.org/2000/svg">
<path d="M34.3436 0.0871277C30.9024 0.637205 27.845 2.88869 26.3099 5.99726C24.3271 10.0269 25.0563 14.9008 28.1137 18.1374C33.3202 23.6765 42.4413 22.2565 45.7162 15.3998C47.085 12.5342 47.0977 9.0035 45.729 6.16357C44.3602 3.32363 41.8144 1.20008 38.7187 0.342978C37.6441 0.0359573 35.4694 -0.0791759 34.3436 0.0871277ZM38.2837 4.00163C40.3177 4.67964 41.9935 6.31708 42.7483 8.33829C42.9786 8.97792 43.0297 9.37449 43.0297 10.7689C43.0297 12.7261 42.8378 13.4169 41.8784 14.8241C40.9446 16.1929 39.5374 17.2163 37.9255 17.6896C36.7358 18.0478 34.8425 17.9966 33.6912 17.5873C29.5464 16.1289 27.6276 11.4852 29.5464 7.58354C30.5315 5.5879 32.591 4.0656 34.8297 3.66903C35.7764 3.51552 37.2603 3.64344 38.2837 4.00163Z" fill="#7C7C7C"/>
<path d="M73.658 0.150682C69.283 0.982197 65.9185 4.24429 64.9719 8.59374C64.7033 9.79623 64.7672 12.2396 65.0998 13.4549C66.2 17.6252 69.6923 20.7722 73.9394 21.4502C77.9563 22.077 82.2162 20.2093 84.4805 16.8065C85.1969 15.732 85.7981 14.3759 86.1051 13.1351C86.3354 12.2012 86.3354 9.3357 86.1051 8.40185C85.1073 4.44897 82.3313 1.53227 78.4808 0.406534C77.0352 -0.0156193 75.078 -0.11796 73.658 0.150682ZM77.5213 3.8733C80.1566 4.61527 82.2418 6.99467 82.6511 9.73227C83.2396 13.6468 80.438 17.3566 76.5235 17.8811C73.0312 18.3544 69.7691 16.2692 68.6817 12.8792C68.298 11.6895 68.298 9.79623 68.6817 8.6577C69.4109 6.52135 70.8053 4.99904 72.7753 4.16753C74.2976 3.5279 75.9095 3.42556 77.5213 3.8733Z" fill="#7C7C7C"/>
<path d="M27.734 23.559C24.8301 24.0579 21.9646 25.5546 19.8666 27.6654C17.6408 29.9296 15.594 33.9977 14.852 37.6691C14.3787 39.9718 14.3147 41.9162 14.3531 52.0223C14.3915 61.5783 14.3915 61.6934 14.6729 62.5122C15.5812 65.1602 17.8838 66.8616 20.6086 66.8872C21.1587 66.8872 21.8879 66.7977 22.31 66.6825C22.7194 66.5546 23.0776 66.4906 23.1159 66.5162C23.1415 66.5546 23.052 69.2538 22.8985 72.5031C22.6426 78.3237 22.2844 86.4086 21.9902 93.0479C21.7599 98.4591 21.8623 99.3034 23.0904 101.146C24.3824 103.077 26.7362 104.356 29.0261 104.344C29.9855 104.344 31.3415 103.998 32.3265 103.512C33.6826 102.847 34.7571 101.721 35.4991 100.212C35.8189 99.5593 36.0748 99.1371 36.0748 99.265C36.0748 99.393 36.2794 99.9047 36.5353 100.416C37.8017 102.936 40.7312 104.548 43.5328 104.292C45.0807 104.152 46.7693 103.41 47.7927 102.438L48.202 102.054L48.8033 102.629C50.1849 103.909 52.2829 104.548 54.0866 104.229C55.1356 104.037 56.3125 103.525 56.9521 102.949C57.208 102.732 57.4638 102.553 57.5278 102.553C57.6045 102.553 57.886 102.732 58.1546 102.949C59.4339 103.985 61.2632 104.484 62.875 104.254C63.7449 104.126 64.9346 103.666 65.7662 103.116C66.0988 102.911 66.1116 102.911 66.5337 103.218C68.6317 104.791 71.3053 104.676 73.6208 102.885C73.7103 102.821 74.0045 102.949 74.4267 103.243C76.0641 104.42 78.2644 104.638 80.0682 103.794C81.0148 103.346 82.1534 102.182 82.6267 101.171C83.0744 100.186 82.8825 101.632 85.0828 81.7393L85.7608 75.5861L88.588 75.5349L91.4023 75.4966L92.0803 75.1128C92.8351 74.7034 93.2572 74.2557 93.6538 73.4881C94.1399 72.5415 94.1271 72.1321 93.398 67.0407L93.2956 66.3755L94.0632 66.0173C96.3019 64.9555 98.1312 62.7041 98.6813 60.3374C99.0522 58.764 98.9627 57.7661 97.4148 46.9181C96.5961 41.251 95.8285 36.1724 95.7006 35.6479C94.3958 30.4158 90.4557 26.1047 85.3259 24.2882C82.9721 23.4566 82.6395 23.4311 76.3711 23.4311C70.1924 23.4311 69.8725 23.4566 67.685 24.1602C65.1649 24.9662 62.8367 26.4117 60.9562 28.369C59.92 29.4563 58.5768 31.3112 58.2186 32.1683L58.0523 32.5777H56.8114C56.1334 32.5777 55.3786 32.6161 55.1356 32.6545L54.6878 32.7184L53.9843 31.4008C51.8607 27.4351 48.7649 24.9278 44.5434 23.7765L43.3025 23.4439L36.0108 23.4183C30.4333 23.3927 28.4888 23.4311 27.734 23.559ZM43.5584 27.2432C46.6669 28.1259 48.9696 29.9169 50.5687 32.6928C50.9652 33.3964 51.2978 34.0233 51.2978 34.0744C51.2978 34.1256 51.0932 34.3175 50.8373 34.4838C50.0314 35.0339 48.637 36.6713 48.1125 37.6819C47.2426 39.3577 47.0123 40.33 47.0123 42.236C47.0123 44.1037 47.2042 44.9353 47.9334 46.4576C49.1487 49.0033 51.4258 50.8838 54.1889 51.6513C55.4554 51.9967 57.579 52.0351 58.8966 51.7153C60.1247 51.4211 61.6981 50.6535 62.6832 49.8604C64.2311 48.6323 65.2289 47.1995 65.9069 45.2295C66.2906 44.1037 66.3162 43.9119 66.329 42.3C66.329 40.3939 66.1116 39.4217 65.344 37.8866C64.6276 36.4666 63.2588 34.9315 61.9924 34.1384L61.4167 33.7674L61.7109 33.2557C62.9902 31.017 65.4591 28.8935 67.9281 27.8829C69.9365 27.0769 70.2563 27.0385 75.6036 26.9874C79.5948 26.9362 80.7718 26.9618 81.8335 27.1281C86.6563 27.8573 90.7115 31.4008 92.0931 36.0956C92.2338 36.5818 93.0142 41.686 93.8457 47.417C95.5087 59.1094 95.5087 59.0454 94.7923 60.4654C94.2167 61.6039 92.7455 62.9855 92.7455 62.3714C92.7455 62.2435 92.5537 60.798 91.7861 55.1565C91.3512 51.9839 90.3661 44.6666 90.1231 42.8757C89.2404 36.2747 89.2916 36.5178 88.4856 36.0317C87.6413 35.52 86.4644 35.8398 86.0167 36.6969C85.7608 37.1958 85.7608 37.5924 86.0039 39.4857C86.1958 40.8545 86.3749 42.2233 87.1936 48.1846C87.3599 49.4894 87.6157 51.3571 87.7565 52.3421C87.8844 53.3271 88.2938 56.3206 88.6519 58.9942C90.2126 70.4819 90.3917 71.8635 90.3278 71.9147C90.3022 71.953 86.1702 71.9786 81.1555 71.9786H72.0473L71.9961 67.6548C71.9449 64.2647 71.8938 63.1262 71.7147 62.2947C71.1646 59.6339 69.9749 57.4975 67.9537 55.5914C66.2139 53.9412 64.1927 52.8922 61.7877 52.4061C60.5596 52.1502 60.1502 52.1374 57.1184 52.1886C53.2807 52.2526 52.4875 52.3933 50.4279 53.3655C47.0635 54.9646 44.6713 57.8173 43.6095 61.4888C43.2002 62.8831 43.1106 64.7381 43.1106 71.275C43.1106 78.1062 43.1618 78.6947 43.827 79.91C44.262 80.7159 45.2981 81.7009 46.168 82.1359L46.8332 82.4813L46.7949 89.9905C46.7565 98.216 46.7693 97.9602 45.9762 99.1115C45.2086 100.224 43.5712 100.915 42.3303 100.647C40.5521 100.263 39.5031 99.0603 39.3368 97.1799C39.2985 96.7193 39.0938 92.8944 38.8763 88.6728C37.7122 65.0323 37.8017 66.5418 37.5203 66.0685C37.1621 65.4544 36.676 65.1602 36.0364 65.1602C35.32 65.1602 34.6932 65.5184 34.4117 66.0941C34.1687 66.5546 34.1687 66.7081 33.5802 78.5668C33.4651 80.6775 33.3244 83.4407 33.2604 84.7072C33.1964 85.9736 33.0557 88.8263 32.9406 91.0394C32.6208 97.3973 32.5696 98.0753 32.2626 98.6638C31.5846 100.007 30.4716 100.698 29.0261 100.685C27.4782 100.659 26.4164 99.943 25.7384 98.4591L25.4058 97.7555L25.7 91.1674C26.0326 83.4663 26.3652 75.6629 26.7362 67.4501C26.9537 62.5633 26.9921 59.6211 26.9921 50.0523C26.9921 39.3321 26.9793 38.5006 26.7618 38.0913C26.1222 36.8248 24.4975 36.7481 23.7044 37.9378L23.4102 38.3727V49.5917C23.4102 61.9877 23.423 61.6934 22.617 62.4738C21.9134 63.1262 21.4273 63.3181 20.5191 63.2541C19.5213 63.1902 18.7793 62.7296 18.3315 61.8725L18.0245 61.2969L18.0757 50.3593L18.1141 39.4217L18.4467 38.0785C19.2654 34.8036 20.6854 32.0148 22.4507 30.2239C24.1266 28.5225 26.2373 27.4351 28.5911 27.0897C29.0133 27.0258 32.3777 26.9874 36.0748 27.0002C41.9593 27.0258 42.8804 27.0513 43.5584 27.2432ZM58.7687 36.1596C61.3911 37.0679 63.0797 39.4473 63.0797 42.2488C63.0797 44.6794 61.8133 46.8158 59.7409 47.9159C55.0716 50.4105 49.5453 46.5727 50.2872 41.3406C50.5942 39.1147 52.3212 36.9527 54.368 36.2236C55.7752 35.7119 57.4382 35.6863 58.7687 36.1596ZM61.6598 56.0264C62.0435 56.1415 62.8495 56.4741 63.4507 56.7683C64.3206 57.2033 64.7555 57.5231 65.6382 58.4058C66.8151 59.5827 67.3524 60.4142 67.9025 61.8981L68.2479 62.832L68.2863 70.3923L68.3247 77.9527L67.9665 78.3749C67.5827 78.8354 66.9687 79.1424 66.4314 79.1424C65.9708 79.1424 65.3184 79.539 65.0242 79.9995C64.8067 80.3193 64.7939 80.959 64.73 89.6451L64.666 98.9452L64.2822 99.5081C63.1309 101.133 60.7771 101.082 59.7793 99.3802L59.4211 98.7789L59.3571 90.4638C59.2931 82.7115 59.2804 82.1103 59.0629 81.7905C58.3337 80.6775 56.7986 80.6775 56.0694 81.7905C55.852 82.1103 55.8392 82.7115 55.7752 90.4638L55.7112 98.7789L55.3531 99.3802C54.3552 101.082 52.0014 101.133 50.8501 99.5081L50.4663 98.9452L50.4024 89.6451C50.3384 80.959 50.3256 80.3193 50.1081 79.9995C49.8139 79.539 49.1615 79.1424 48.701 79.1424C48.1637 79.1424 47.5496 78.8354 47.1659 78.3877L46.8205 77.9655V70.7761C46.8205 64.0089 46.8332 63.51 47.0763 62.5633C47.959 59.0838 50.8757 56.4101 54.4192 55.8473C55.5833 55.6682 60.8666 55.7961 61.6598 56.0264ZM82.0766 76.0978C82.0382 76.4048 81.4626 81.6497 80.7846 87.7774C80.1193 93.8922 79.5053 99.1243 79.4285 99.4057C79.0704 100.723 77.4969 101.107 76.3711 100.173C75.5524 99.4825 75.6036 100.25 75.6036 87.3296V75.5605H78.8785H82.1534L82.0766 76.0978ZM71.9321 88.5065C71.9066 94.2248 71.8682 99.0348 71.8298 99.1883C71.7147 99.6616 71.0239 100.352 70.4354 100.57C69.7574 100.826 68.9771 100.672 68.4782 100.173C68.2095 99.9047 68.1711 99.7639 68.2351 99.3802C68.2735 99.1243 68.3119 95.2098 68.3119 90.6941V82.4685L68.9771 82.1359C69.9109 81.6625 70.9215 80.6519 71.3821 79.7437C71.5867 79.3215 71.7658 78.8738 71.7658 78.7459C71.7658 78.554 71.881 78.119 71.9449 78.119C71.9449 78.119 71.9449 82.8011 71.9321 88.5065Z" fill="#7C7C7C"/>
<path d="M0.92106 50.6131C0.0895475 51.1248 0 51.4446 0 53.9136C0 55.5638 0.05117 56.2162 0.179095 56.4721C0.857098 57.7641 2.58409 57.8792 3.32605 56.6895C3.55632 56.3185 3.5819 56.0499 3.5819 53.9903C3.5819 51.9307 3.55632 51.6621 3.32605 51.2783C2.99345 50.741 2.35382 50.3572 1.79095 50.3572C1.54789 50.3572 1.15133 50.4724 0.92106 50.6131Z" fill="#7C7C7C"/>
<path d="M9.83581 50.653C9.05547 51.1647 8.95312 51.5613 8.95312 53.9407C8.95312 55.6933 8.9915 56.1282 9.18339 56.4992C9.83581 57.804 11.6907 57.868 12.3687 56.6016C12.5606 56.2434 12.5862 55.8596 12.5734 53.9023C12.5478 51.9451 12.5222 51.5613 12.3176 51.2159C11.8442 50.3844 10.6289 50.1158 9.83581 50.653Z" fill="#7C7C7C"/>
<path d="M99.8027 50.6157C99.5341 50.782 99.2782 51.1018 99.1119 51.46C98.8817 51.9845 98.8689 52.2659 98.9073 54.1848C98.9456 56.5514 99.0224 56.7945 99.8155 57.2678C100.621 57.7667 101.76 57.4853 102.297 56.6665C102.489 56.3723 102.54 55.9758 102.566 54.1848C102.604 52.2659 102.592 51.9845 102.361 51.46C102.041 50.7564 101.453 50.3598 100.737 50.3598C100.442 50.3598 100.046 50.475 99.8027 50.6157Z" fill="#7C7C7C"/>
<path d="M108.903 50.5656C108.058 50.9877 107.969 51.3203 107.969 53.93C107.969 56.5397 108.033 56.7955 108.8 57.2689C109.414 57.6526 110.374 57.5759 110.873 57.1281C111.461 56.5781 111.551 56.1687 111.551 53.9172C111.551 52.1902 111.512 51.7553 111.32 51.3843C110.873 50.476 109.811 50.1178 108.903 50.5656Z" fill="#7C7C7C"/>
</svg>
