<svg width="105" height="105" viewBox="0 0 105 105" fill="none" xmlns="http://www.w3.org/2000/svg">
<path d="M51.5981 0.112518C51.4387 0.165649 48.4207 2.3866 44.8927 5.02199L38.4743 9.83583L38.4318 7.91242C38.3893 6.09528 38.368 5.95713 38.113 5.45768C37.7623 4.78821 37.1672 4.19312 36.4871 3.83182L35.9558 3.5449H33.0866H30.2174L29.6861 3.8637C29.0698 4.225 28.4747 4.80946 28.2621 5.25578C28.1877 5.4258 28.0709 5.65958 27.9965 5.77648C27.9115 5.92525 27.8583 7.7849 27.8264 11.908L27.7733 17.8164L27.0826 18.3583C26.7 18.6665 26.3068 18.9747 26.2006 19.0597C26.1049 19.1447 25.9774 19.2191 25.9349 19.2191C25.8924 19.2191 25.7755 19.3041 25.6799 19.3997C25.5949 19.506 25.2761 19.761 24.9785 19.9629C24.681 20.1649 24.4366 20.3668 24.4259 20.4093C24.4259 20.4624 24.3622 20.4943 24.2878 20.4943C24.2134 20.4943 24.0753 20.5793 23.9796 20.6749C23.884 20.7812 23.6502 20.9831 23.4483 21.1212C22.6194 21.7163 22.6726 21.3231 22.6726 27.0296C22.6726 31.8222 22.6832 32.1516 22.8745 32.4173C23.2145 32.9274 23.6821 33.1399 24.4578 33.1399C25.0848 33.1399 25.2229 33.0974 25.648 32.7998C25.9137 32.6192 26.1262 32.4279 26.1262 32.3748C26.1262 32.3323 26.1687 32.2898 26.2218 32.2898C26.2856 32.2898 26.6575 32.0454 27.0507 31.7478L27.7733 31.1952L27.8264 43.9365L27.8796 56.6777L28.1665 57.2728C28.5491 58.0486 29.1123 58.5905 29.9093 58.9731L30.5575 59.2812H52.2676H73.9776L74.6258 58.9731C75.4228 58.5905 75.986 58.0486 76.3686 57.2728L76.6555 56.6777L76.7087 43.9365L76.7618 31.1952L77.4844 31.7478C77.8776 32.0454 78.2495 32.2898 78.3133 32.2898C78.3664 32.2898 78.4089 32.3323 78.4089 32.3748C78.4089 32.4279 78.6214 32.6192 78.8871 32.7998C79.3122 33.0974 79.4503 33.1399 80.0879 33.1399C80.8636 33.1399 81.1824 32.9911 81.6181 32.4492L81.8625 32.1304V27.0296C81.8625 21.3231 81.9157 21.7163 81.0868 21.1212C80.8849 20.9831 80.6511 20.7812 80.5555 20.6749C80.4598 20.5793 80.3217 20.4943 80.2473 20.4943C80.1729 20.4943 80.1092 20.4624 80.1092 20.4093C80.0985 20.3668 79.8541 20.1649 79.5566 19.9629C79.259 19.761 78.9402 19.506 78.8552 19.3997C78.7596 19.3041 78.6427 19.2191 78.6002 19.2191C78.5577 19.2191 78.4302 19.1553 78.3345 19.0703C77.6544 18.5177 76.9106 17.9333 76.4961 17.6464C76.2305 17.4657 75.731 17.0938 75.3803 16.8281C74.7852 16.3712 74.4664 16.1374 72.6918 14.7878C72.3199 14.5115 71.7779 14.1077 71.5016 13.9058C71.2147 13.7039 70.7259 13.3426 70.4177 13.0982C67.2616 10.6647 53.2452 0.261288 52.9583 0.13377C52.5438 -0.0362549 52.0338 -0.0468826 51.5981 0.112518ZM55.8593 6.84976C57.7721 8.28435 59.6424 9.68705 60.0249 9.97397C61.6083 11.1748 62.0865 11.5361 62.5753 11.8868C63.3723 12.4712 64.4456 13.2788 65.1257 13.7995C65.4657 14.0652 68.5687 16.3818 72.0223 18.9534L78.292 23.6291V25.6163C78.3026 26.7214 78.2814 27.6141 78.2495 27.6141C78.1964 27.6141 77.8244 27.3378 76.4961 26.3389C76.1136 26.052 72.2455 23.1509 67.8886 19.8886C63.5317 16.6262 59.9293 13.9271 59.8655 13.8739C59.6849 13.7358 58.5904 12.9069 58.2822 12.6837C58.1228 12.5669 57.7402 12.2799 57.4321 12.0462C57.1239 11.8124 56.7413 11.5255 56.5819 11.4086C55.7743 10.8347 54.8711 10.1227 54.8392 10.0484C54.8179 10.0059 54.7329 9.97397 54.6585 9.97397C54.5735 9.97397 54.4673 9.91021 54.4247 9.83583C54.3822 9.76144 54.2016 9.61267 54.0316 9.49578C52.9158 8.73066 52.8626 8.69878 52.2676 8.69878C51.6725 8.69878 51.6193 8.73066 50.5035 9.49578C50.3335 9.61267 50.1529 9.76144 50.1104 9.83583C50.0679 9.91021 49.9616 9.97397 49.8766 9.97397C49.8022 9.97397 49.7172 10.0059 49.6959 10.0484C49.664 10.1227 48.7608 10.8347 47.9532 11.4086C47.7938 11.5255 47.4112 11.8124 47.103 12.0462C46.7949 12.2799 46.4123 12.5669 46.2529 12.6837C45.9447 12.9069 44.8502 13.7358 44.6696 13.8739C44.6164 13.9271 41.0034 16.6262 36.6465 19.8886C32.2896 23.1509 28.4215 26.052 28.039 26.3389C26.7107 27.3378 26.3387 27.6141 26.2856 27.6141C26.2537 27.6141 26.2325 26.7214 26.2431 25.6163V23.6291L32.5234 18.9534C35.9664 16.3818 39.0375 14.0865 39.3456 13.842C39.6432 13.6083 40.1108 13.2576 40.3977 13.0663C40.674 12.8857 40.8971 12.6837 40.8971 12.6306C40.8971 12.5669 40.9396 12.5243 40.9928 12.5243C41.1203 12.5243 42.5336 11.4723 42.5761 11.3448C42.5974 11.2917 42.6611 11.2492 42.7036 11.2492C42.8205 11.2492 44.2339 10.1865 44.2764 10.0696C44.2976 10.0165 44.3614 9.97397 44.4039 9.97397C44.5102 9.97397 51.0242 5.12826 51.9381 4.37377C52.0869 4.25688 52.2569 4.17187 52.2994 4.20375C52.3526 4.23563 53.9572 5.4258 55.8593 6.84976ZM34.84 9.83583V12.5775L34.4893 12.8113C34.1174 13.0663 33.2354 13.7358 32.2684 14.4903C31.9283 14.7559 31.6308 14.9685 31.5989 14.9685C31.567 14.9685 31.5457 13.1938 31.5457 11.0366V7.1048H33.1929H34.84V9.83583ZM52.682 13.1088C52.9689 13.3851 54.0528 14.2246 54.1166 14.2246C54.1485 14.2246 54.2653 14.299 54.3716 14.384C54.8604 14.8197 55.7743 15.4998 55.8593 15.4998C55.9231 15.4998 55.9869 15.5423 56.0081 15.5954C56.0506 15.7123 57.4639 16.775 57.5808 16.775C57.6233 16.775 57.6871 16.8175 57.7084 16.8706C57.7509 16.9981 59.1642 18.0502 59.2917 18.0502C59.3448 18.0502 59.3874 18.0927 59.3874 18.1352C59.3874 18.1777 59.7274 18.454 60.1418 18.7409C60.5456 19.0384 60.992 19.3679 61.1301 19.4848C61.2683 19.6016 61.6508 19.8886 61.9909 20.1223C62.3309 20.3561 62.6816 20.6324 62.7772 20.7281C62.8622 20.8343 63.0004 20.9193 63.0748 20.9193C63.1492 20.9193 63.2129 20.9512 63.2129 20.9937C63.2235 21.0469 63.468 21.2488 63.7655 21.4507C64.063 21.6526 64.3818 21.9076 64.4669 22.0032C64.5625 22.1095 64.7006 22.1945 64.775 22.1945C64.8494 22.1945 64.9132 22.2264 64.9132 22.2689C64.9238 22.322 65.1682 22.5239 65.4657 22.7259C65.7633 22.9278 66.0821 23.1828 66.1671 23.2784C66.2627 23.3847 66.3796 23.4697 66.4221 23.4697C66.4646 23.4697 66.5922 23.5335 66.6878 23.6185C67.3679 24.1711 68.1118 24.7555 68.5262 25.0424C68.7919 25.2231 69.2913 25.595 69.642 25.8607C70.7684 26.7214 71.6398 27.3803 72.3305 27.8797L72.9894 28.3792V42.0237V55.6682H67.8886H62.7879V48.1234C62.7879 40.9717 62.7772 40.5254 62.5753 39.6221C62.4584 39.1014 62.2884 38.4638 62.1928 38.2194C60.9813 34.9677 58.4628 32.6298 55.0836 31.6415C54.3291 31.4184 54.0209 31.3865 52.2676 31.3865C50.5142 31.3865 50.206 31.4184 49.4515 31.6415C46.0723 32.6298 43.5538 34.9677 42.3423 38.2194C42.2467 38.4638 42.0767 39.1014 41.9598 39.6221C41.7579 40.5254 41.7472 40.9717 41.7472 48.1234V55.6682H36.6465H31.5457V42.0237V28.3792L32.2152 27.8797C32.8953 27.3803 33.7667 26.7214 34.8931 25.8607C35.2438 25.595 35.7432 25.2231 36.0089 25.0424C36.4233 24.7555 37.1672 24.1711 37.8473 23.6185C37.9429 23.5335 38.0705 23.4697 38.113 23.4697C38.1555 23.4697 38.2724 23.3847 38.368 23.2784C38.453 23.1828 38.7718 22.9278 39.0694 22.7259C39.3669 22.5239 39.6113 22.322 39.6219 22.2689C39.6219 22.2264 39.6857 22.1945 39.7601 22.1945C39.8345 22.1945 39.9726 22.1095 40.0683 22.0032C40.1533 21.9076 40.4721 21.6526 40.7696 21.4507C41.0672 21.2488 41.3116 21.0469 41.3222 20.9937C41.3222 20.9512 41.3859 20.9193 41.4603 20.9193C41.5347 20.9193 41.6729 20.8343 41.7579 20.7281C41.8535 20.6324 42.2042 20.3561 42.5442 20.1223C42.8843 19.8886 43.2668 19.6016 43.405 19.4848C43.5431 19.3679 43.9895 19.0384 44.3933 18.7409C44.8077 18.454 45.1478 18.1777 45.1478 18.1352C45.1478 18.0927 45.1903 18.0502 45.2434 18.0502C45.3709 18.0502 46.7842 16.9981 46.8267 16.8706C46.848 16.8175 46.9118 16.775 46.9543 16.775C47.0712 16.775 48.4845 15.7123 48.527 15.5954C48.5483 15.5423 48.612 15.4998 48.6758 15.4998C48.7608 15.4998 49.6747 14.8197 50.1741 14.384C50.2698 14.299 50.3866 14.2246 50.4185 14.2246C50.4823 14.2246 51.6193 13.3426 51.8425 13.1088C52.0338 12.9069 52.4695 12.9069 52.682 13.1088ZM53.7234 35.1483C55.1474 35.499 56.2206 36.0941 57.1451 37.0611C57.6658 37.5924 58.5372 38.8464 58.5372 39.0483C58.5372 39.112 58.6435 39.3989 58.7816 39.6859L59.0154 40.2066L59.0473 47.9321L59.0792 55.6682H52.2676H45.4559L45.4878 47.9321L45.5197 40.2066L45.7641 39.6859C45.8916 39.3989 45.9979 39.1227 45.9979 39.0695C45.9979 38.8357 46.7842 37.6774 47.3049 37.1355C49.0371 35.3396 51.4493 34.5957 53.7234 35.1483Z" fill="#7C7C7C"/>
<path d="M3.73275 45.9445C1.89435 46.6565 0.619164 48.0804 0.151595 49.9401C-0.167202 51.2578 0.0134494 52.5861 0.72543 54.127C1.44804 55.6678 1.80934 56.4542 2.2344 57.4212C2.67009 58.3988 2.85074 58.8026 3.65836 60.5348C3.9134 61.0767 4.12593 61.5443 4.12593 61.5656C4.12593 61.5868 4.29596 61.98 4.50849 62.4369C4.72102 62.8939 4.97606 63.4571 5.08232 63.6909C5.18859 63.9247 5.49676 64.5835 5.76242 65.1573C6.02809 65.7312 6.25125 66.2094 6.25125 66.2412C6.25125 66.4325 7.9515 69.8755 8.38719 70.545C8.55721 70.8107 8.72724 71.0976 8.76974 71.1826C8.87601 71.4164 9.48172 72.2134 10.0024 72.8191C10.2468 73.106 12.9885 75.8795 16.1021 78.9931C19.9489 82.8612 21.7129 84.689 21.6385 84.7634C21.5216 84.8802 21.3516 85.1672 21.1072 85.6347C21.0009 85.8473 20.969 87.59 20.969 94.0297V102.159L21.256 102.637C21.6279 103.254 22.223 103.827 22.8287 104.146L23.3069 104.391H33.9866H44.6663L45.1976 104.125C45.8777 103.796 46.4834 103.169 46.8341 102.425L47.1104 101.84L47.1423 94.1891C47.1635 87.2818 47.1529 86.4849 46.9935 85.9535C46.5897 84.6465 45.5164 83.7007 44.2625 83.5519L43.6568 83.4775V81.2353C43.6568 78.8975 43.4867 77.0697 43.1786 75.8052C42.9554 74.9444 42.541 73.6373 42.3072 73.0954C41.9671 72.2984 41.0533 70.545 40.9789 70.545C40.9257 70.545 40.8939 70.5025 40.8939 70.4494C40.8939 70.29 40.235 69.2698 40.1394 69.2698C40.0862 69.2698 40.0437 69.2061 40.0437 69.121C40.0437 68.7597 37.4934 66.3263 36.5901 65.8268C36.4201 65.7312 36.1013 65.5505 35.8994 65.423C35.6975 65.2955 35.0705 65.0086 34.5179 64.7854C33.434 64.3497 30.5967 62.947 29.8954 62.5113C29.6616 62.3732 29.3959 62.2244 29.3109 62.1819C29.2259 62.1394 29.109 62.065 29.0452 62.0119C28.9921 61.9694 28.7796 61.8206 28.5777 61.6931C28.3758 61.5656 28.1101 61.3849 27.9826 61.2999C27.8551 61.2149 27.6106 61.0449 27.4406 60.9386C27.0687 60.6835 25.1984 59.2171 24.9009 58.9514C24.0933 58.1969 23.8913 58.0269 23.5194 57.7825C21.6704 56.5498 19.5451 56.1141 17.356 56.5073C16.5484 56.6561 15.507 57.0174 14.9544 57.3574C14.5931 57.5806 14.3274 57.5062 14.3274 57.198C14.3274 57.1236 14.2212 56.8261 14.0937 56.5498C13.7642 55.8272 13.2967 54.7539 12.8397 53.6488C12.7016 53.33 12.4784 52.7986 12.3296 52.4798C11.979 51.6935 11.8408 51.364 11.5645 50.6733C10.7569 48.6862 10.4062 48.0486 9.75801 47.3791C9.06729 46.6671 8.48283 46.2845 7.56894 45.9339C6.98448 45.7107 6.70819 45.6788 5.6349 45.6788C4.58287 45.6895 4.28533 45.732 3.73275 45.9445ZM6.4319 49.4513C6.89947 49.6851 7.52643 50.3652 7.52643 50.6308C7.52643 50.6733 7.62207 50.8965 7.72834 51.1409C7.8346 51.3853 8.1534 52.0973 8.42969 52.7455C8.70598 53.3831 8.9929 54.0526 9.06729 54.2332C9.14167 54.4032 9.42859 55.0727 9.70488 55.7209C9.98117 56.3585 10.2681 57.028 10.3425 57.2087C10.4169 57.3787 10.7038 58.0482 10.9801 58.6964C11.894 60.8323 12.6166 62.1819 13.6261 63.5846C14.4018 64.6579 14.3381 64.5941 19.3751 69.6524C23.8063 74.1049 24.072 74.3493 24.5077 74.4237C25.5597 74.5937 26.293 74.243 26.6861 73.3929C26.9199 72.9041 26.9199 72.4365 26.6861 71.9477C26.5799 71.7139 24.784 69.833 22.2974 67.3358C17.611 62.6282 17.4942 62.5007 16.9735 61.8312C16.7715 61.5656 16.5803 61.3318 16.5484 61.2999C16.389 61.1511 16.3784 60.8748 16.5378 60.7473C17.0266 60.3329 17.8767 60.0991 18.9075 60.0991C19.8639 60.0991 19.9701 60.1203 20.714 60.4816C21.1497 60.6942 21.7023 61.0661 21.9573 61.2999C22.2124 61.5337 22.935 62.1394 23.5513 62.6282C24.1783 63.1277 24.7627 63.5952 24.8477 63.6696C24.9328 63.7334 25.0815 63.8396 25.1772 63.9034C25.2834 63.9565 25.7085 64.2541 26.1442 64.5516C26.5692 64.8492 26.9943 65.1255 27.0793 65.1573C27.1643 65.1998 27.4513 65.3699 27.7169 65.5505C28.1632 65.8374 28.7583 66.1669 30.1079 66.8576C30.9474 67.2933 32.7114 68.1009 32.807 68.1009C32.9346 68.1009 33.8591 68.5366 34.2523 68.781C35.1343 69.3442 35.4424 69.578 36.1332 70.2687C36.9514 71.087 37.7165 72.1815 38.3435 73.4142C39.0873 74.8806 39.2999 75.4864 39.6718 77.2397C39.9162 78.3449 39.9375 78.6956 39.9375 80.9803V83.5094H32.8921H25.8573L19.3644 76.9953C13.8811 71.5014 11.7771 69.2804 11.7771 69.0148C11.7771 68.9829 11.6708 68.7916 11.5327 68.6003C11.3945 68.3984 11.1395 67.9309 10.9588 67.5589C10.4912 66.6025 9.75801 65.0192 9.75801 64.9661C9.75801 64.9342 9.53486 64.456 9.26919 63.8821C9.00353 63.3083 8.69536 62.6495 8.58909 62.4157C8.48283 62.1819 8.27029 61.7037 8.1109 61.353C7.9515 61.0023 7.68583 60.4073 7.51581 60.0247C7.34578 59.6421 7.112 59.1427 6.99511 58.9089C6.52754 57.91 5.93245 56.6029 5.93245 56.5711C5.93245 56.5286 5.40112 55.3703 4.86979 54.2332C4.76353 53.9994 4.47661 53.3937 4.24282 52.873C3.53084 51.364 3.5521 50.482 4.30658 49.8232C5.08232 49.1325 5.61365 49.0475 6.4319 49.4513ZM43.4442 93.9766V100.831H33.9866H24.5289V93.9766V87.1225H33.9866H43.4442V93.9766Z" fill="#7C7C7C"/>
<path d="M36.0383 92.191C35.9108 92.2123 35.6026 92.4142 35.3476 92.6373L34.8906 93.0518V93.955C34.8906 94.7733 34.9225 94.8902 35.1457 95.1346C35.6664 95.6872 36.1764 95.8359 37.5048 95.8359C38.5674 95.8359 38.7799 95.8041 39.1625 95.5915C39.4069 95.464 39.6938 95.2408 39.8107 95.0815C40.2783 94.497 40.2358 93.3068 39.747 92.7755C39.2475 92.2335 38.8225 92.1166 37.4729 92.1273C36.814 92.1379 36.1658 92.1698 36.0383 92.191Z" fill="#7C7C7C"/>
<path d="M96.9353 45.9445C96.0108 46.2952 95.4369 46.6777 94.7675 47.3791C94.1086 48.0698 93.7898 48.6543 92.9078 50.7796C92.759 51.1621 92.5678 51.6085 92.4827 51.7891C92.0471 52.7668 91.877 53.1599 91.4732 54.127C91.2288 54.7114 90.9313 55.3703 90.825 55.5934C90.7187 55.8272 90.6231 56.0397 90.6231 56.0929C90.6231 56.1354 90.4849 56.4861 90.3043 56.8686L89.9855 57.57L89.1673 57.1555C88.094 56.6242 86.9357 56.3692 85.5755 56.3798C83.4927 56.401 81.633 57.1024 80.2091 58.4095C80.0071 58.5901 79.7415 58.8345 79.6246 58.9408C79.2102 59.3233 77.8074 60.4179 77.2867 60.7686C76.9998 60.9705 76.7342 61.1511 76.7023 61.183C76.6704 61.2149 76.5535 61.3105 76.4366 61.3849C75.8415 61.7568 75.5759 61.9375 75.4802 62.0119C75.4271 62.065 75.2996 62.1394 75.2146 62.1819C75.1296 62.2244 74.8639 62.3732 74.6301 62.5113C73.9288 62.947 71.0915 64.3497 70.0075 64.7854C69.455 65.0086 68.828 65.2955 68.6261 65.423C68.4242 65.5505 68.116 65.7312 67.9354 65.8268C67.0321 66.3263 64.4817 68.7597 64.4817 69.121C64.4817 69.2061 64.4392 69.2698 64.3861 69.2698C64.2905 69.2698 63.6316 70.29 63.6316 70.4494C63.6316 70.5025 63.5997 70.545 63.5466 70.545C63.4722 70.545 62.5583 72.2984 62.2183 73.0954C61.9845 73.6373 61.5701 74.9444 61.3469 75.8052C61.0387 77.0697 60.8687 78.8975 60.8687 81.2353V83.4775L60.263 83.5519C59.0091 83.7007 57.9358 84.6465 57.532 85.9535C57.3726 86.4849 57.3619 87.2818 57.3832 94.1891L57.4151 101.84L57.6914 102.425C58.042 103.169 58.6477 103.796 59.3278 104.125L59.8592 104.391H70.5389H81.2186L81.6968 104.146C82.3025 103.827 82.8976 103.254 83.2695 102.637L83.5564 102.159V94.0297C83.5564 87.59 83.5245 85.8473 83.4183 85.6347C83.1739 85.1672 83.0038 84.8802 82.8869 84.7634C82.8126 84.689 84.5766 82.8612 88.4234 78.9931C91.537 75.8795 94.2786 73.106 94.523 72.8191C95.0437 72.2134 95.6495 71.4164 95.7557 71.1826C95.7982 71.0976 95.9683 70.8107 96.1383 70.545C96.574 69.8755 98.2742 66.4325 98.2742 66.2412C98.2742 66.2094 98.4974 65.7312 98.763 65.1573C99.0287 64.5835 99.3369 63.9247 99.4431 63.6909C99.5494 63.4571 99.8044 62.8939 100.017 62.4369C100.23 61.98 100.4 61.5868 100.4 61.5656C100.4 61.5443 100.612 61.0767 100.867 60.5348C101.675 58.8026 101.855 58.3988 102.291 57.4212C102.716 56.4542 103.077 55.6678 103.8 54.1163C104.746 52.0867 104.756 50.2695 103.843 48.548C103.194 47.3578 102.132 46.4546 100.761 45.9339C100.176 45.7107 99.9001 45.6788 98.8268 45.6788C97.7854 45.6895 97.4772 45.732 96.9353 45.9445ZM99.475 49.345C100.091 49.6 100.591 50.1101 100.729 50.5989C100.899 51.2365 100.782 51.8104 100.283 52.873C100.038 53.3937 99.7513 53.9994 99.645 54.2332C98.9224 55.7953 98.593 56.5286 98.593 56.5711C98.593 56.6029 97.9979 57.91 97.5304 58.9089C97.4135 59.1427 97.1797 59.6421 97.0097 60.0247C96.8396 60.4073 96.574 61.0023 96.4146 61.353C96.2552 61.7037 96.0426 62.1819 95.9364 62.4157C95.8301 62.6495 95.5219 63.3083 95.2563 63.8821C94.9906 64.456 94.7675 64.9342 94.7675 64.9661C94.7675 64.9873 94.5762 65.423 94.3318 65.9437C94.098 66.4538 93.8004 67.0914 93.6729 67.357C93.556 67.6227 93.301 68.0903 93.0991 68.3984C92.9078 68.7066 92.7484 68.9829 92.7484 69.0042C92.7484 69.2804 90.6656 71.4801 85.161 76.9953L78.6682 83.5094H71.6334H64.588V80.9803C64.588 78.7062 64.6093 78.3343 64.843 77.2397C65.2468 75.3907 65.3956 74.9338 66.1714 73.4142C67.4147 70.9807 69.0299 69.3229 71.1021 68.3453C71.389 68.2072 71.6759 68.1009 71.7397 68.1009C71.8778 68.1009 76.1178 66.0181 76.4898 65.7631C76.6385 65.6674 76.9467 65.4655 77.1805 65.3167C77.4143 65.1786 77.9562 64.8173 78.3813 64.5304C78.817 64.2435 79.2527 63.9565 79.3483 63.9034C79.4439 63.8396 79.5927 63.7334 79.6777 63.659C79.7627 63.5952 80.2409 63.2127 80.7404 62.8089C81.7393 62.0225 81.7287 62.0331 82.4938 61.353C82.7913 61.0874 83.3758 60.6942 83.7902 60.4816C84.5234 60.1203 84.6297 60.0991 85.618 60.0991C86.6062 60.0885 86.7125 60.1097 87.3926 60.4604C87.9771 60.7473 88.1152 60.8642 88.094 61.0342C88.0727 61.1511 88.0196 61.268 87.9771 61.2999C87.9452 61.3318 87.7433 61.5656 87.5414 61.8312C87.0207 62.5113 86.8719 62.6707 82.2281 67.3358C79.9221 69.6524 77.9668 71.6927 77.8925 71.8521C77.7331 72.2134 77.7224 72.9785 77.8712 73.3823C77.935 73.5417 78.1581 73.8392 78.3813 74.0199C78.7532 74.3493 78.817 74.3706 79.6246 74.3706H80.4641L85.1929 69.6099C90.4743 64.2966 90.0811 64.711 90.8462 63.6484C91.8983 62.1925 92.6209 60.8748 93.5454 58.6964C93.8217 58.0482 94.1086 57.3787 94.183 57.2087C94.2574 57.028 94.5443 56.3585 94.8206 55.7209C95.0969 55.0727 95.3838 54.4032 95.4582 54.2332C95.5326 54.0526 95.8195 53.3831 96.0958 52.7455C96.3721 52.0973 96.6909 51.3853 96.7971 51.1409C96.9034 50.8965 96.999 50.6733 96.999 50.6308C96.999 50.3652 97.626 49.6851 98.0936 49.4513C98.7205 49.1431 98.9543 49.1218 99.475 49.345ZM79.9965 93.9766V100.831H70.5389H61.0812V93.9766V87.1225H70.5389H79.9965V93.9766Z" fill="#7C7C7C"/>
<path d="M65.4122 92.3185C64.849 92.5842 64.509 93.0093 64.4239 93.5619C64.2858 94.5289 64.5727 95.1665 65.3697 95.5915C65.7523 95.8041 65.9648 95.8359 67.0275 95.8359C68.3558 95.8359 68.8658 95.6872 69.3865 95.1346C69.6097 94.8902 69.6416 94.7733 69.6416 93.955V93.0518L69.1953 92.648C68.6533 92.1698 68.4195 92.1166 66.9424 92.1166C66.0817 92.1273 65.7204 92.1698 65.4122 92.3185Z" fill="#7C7C7C"/>
</svg>
