<svg width="37" height="32" viewBox="0 0 37 32" fill="none" xmlns="http://www.w3.org/2000/svg">
<path d="M10.9007 21.1327L14.8486 19.4181L13.7407 20.5285C13.3857 20.8835 13.1868 21.3644 13.1868 21.8629V29.2527C13.1868 30.9446 15.2313 31.7654 16.4096 30.5871L20.3726 26.6241L29.0087 30.9421C30.1266 31.5011 31.4787 30.8389 31.7103 29.59L36.6377 2.49594C36.897 1.03813 35.4619 -0.140199 34.0897 0.398611L2.07323 12.9297C0.638081 13.4887 0.446729 15.4526 1.74592 16.2809L9.13316 20.9943C9.6619 21.3316 10.3291 21.3845 10.9007 21.1327ZM32.3171 5.15223L28.4472 26.4403L20.8435 22.6409C20.1083 22.2733 19.2321 22.4269 18.6656 22.9959L16.9635 24.6979V22.651L24.5346 15.0799C26.0025 13.6121 24.3508 11.1899 22.4473 12.0132L10.319 17.2755L6.90994 15.1001L32.3171 5.15223Z" fill="white"/>
</svg>
