<svg width="46" height="46" viewBox="0 0 46 46" fill="none" xmlns="http://www.w3.org/2000/svg">
<path fill-rule="evenodd" clip-rule="evenodd" d="M35.0915 10.9196C31.8812 7.70929 27.6155 5.9375 23.0722 5.9375C13.7078 5.9375 6.08191 13.5579 6.08191 22.9222C6.07635 25.916 6.8595 28.8375 8.34802 31.4146L5.9375 40.218L14.9464 37.8519C17.4236 39.2072 20.2229 39.9181 23.0667 39.9236H23.0722C32.4366 39.9236 40.0569 32.3033 40.0625 22.9333C40.0625 18.3956 38.2963 14.1299 35.0915 10.9196ZM23.0722 37.0521H23.0667C20.5339 37.0521 18.0457 36.369 15.8795 35.0859L15.363 34.7805L10.0143 36.1801L11.4417 30.9703L11.1085 30.4371C9.69214 28.1876 8.94788 25.5883 8.94788 22.9222C8.94788 15.1408 15.2852 8.80902 23.0778 8.80902C26.8491 8.80902 30.3926 10.2809 33.0587 12.9469C35.7247 15.6185 37.191 19.162 37.191 22.9333C37.191 30.7203 30.8536 37.0521 23.0722 37.0521ZM30.8148 26.4769C30.3926 26.2659 28.3043 25.2383 27.9155 25.0995C27.5267 24.9551 27.2434 24.8884 26.9601 25.3105C26.6769 25.7382 25.866 26.6935 25.616 26.9768C25.3716 27.2545 25.1217 27.2934 24.6996 27.0823C24.2719 26.8713 22.9056 26.4214 21.2838 24.9717C20.0229 23.8498 19.1676 22.4557 18.9232 22.0336C18.6733 21.6059 18.8954 21.3782 19.1065 21.1671C19.3009 20.9783 19.5342 20.6728 19.7452 20.4229C19.9563 20.1785 20.0285 20.0007 20.1729 19.7175C20.3118 19.4342 20.2396 19.1843 20.134 18.9732C20.0285 18.7621 19.1787 16.6682 18.8232 15.8184C18.4789 14.9908 18.129 15.1075 17.8679 15.0908C17.6235 15.0797 17.3403 15.0797 17.057 15.0797C16.7737 15.0797 16.3127 15.1852 15.924 15.6129C15.5352 16.035 14.441 17.0626 14.441 19.1509C14.441 21.2393 15.9628 23.261 16.1739 23.5443C16.3849 23.822 19.1676 28.1099 23.4277 29.9483C24.4385 30.3871 25.2272 30.6481 25.8438 30.8425C26.8602 31.1647 27.7877 31.1202 28.5209 31.0147C29.3373 30.8925 31.0314 29.9872 31.3868 28.993C31.7368 28.0043 31.7368 27.1545 31.6312 26.9768C31.5257 26.7991 31.2424 26.6935 30.8148 26.4769Z" fill="white"/>
</svg>
