<svg width="104" height="104" viewBox="0 0 104 104" fill="none" xmlns="http://www.w3.org/2000/svg">
<path d="M79.82 0.0535583C76.0461 0.363741 72.5694 2.78058 70.8764 6.28306C70.1268 7.8469 69.907 8.72575 69.8166 10.4705C69.6873 12.9391 70.1914 14.994 71.4063 16.9327C75.7617 23.9376 85.791 24.041 90.2499 17.1265C92.3953 13.8179 92.5892 9.47536 90.7668 5.98581C89.7071 3.95669 88.0527 2.31531 86.0624 1.28137C83.9816 0.208651 82.2239 -0.140306 79.82 0.0535583ZM83.3612 3.64651C85.623 4.37027 87.5358 6.29599 88.3242 8.62236C89.7458 12.8486 87.3936 17.3721 83.0898 18.6645C81.6035 19.1169 79.8846 19.0781 78.4371 18.5741C74.5856 17.2299 72.3885 13.4173 73.2027 9.53998C73.836 6.55447 76.0978 4.21518 79.0704 3.46557C80.1043 3.19416 82.2627 3.29755 83.3612 3.64651Z" fill="#7C7C7C"/>
<path d="M22.5347 0.28249C18.3213 1.41983 15.3875 4.36656 14.3148 8.56696C13.9659 9.92401 13.9659 12.1858 14.3277 13.6721C15.3229 17.9241 18.8254 21.2586 23.1033 22.0599C29.6818 23.3006 35.8854 18.4411 36.2603 11.7334C36.4283 8.60573 35.3814 5.76239 33.2101 3.48771C31.7367 1.94972 29.992 0.877007 28.0921 0.347111C26.8643 0.0110798 23.6978 -0.0276928 22.5347 0.28249ZM27.0711 3.50064C28.8417 3.97884 30.3539 4.97401 31.4007 6.36983C33.7917 9.52336 33.4815 13.8918 30.6899 16.6446C28.4669 18.8418 25.4168 19.5397 22.5088 18.5187C20.092 17.6657 18.0887 15.4427 17.4942 12.9483C17.0806 11.1777 17.3649 9.00638 18.2309 7.365C18.7866 6.31813 20.3505 4.75429 21.3973 4.19855C23.0904 3.30677 25.3005 3.03536 27.0711 3.50064Z" fill="#7C7C7C"/>
<path d="M42.9046 7.62269C41.9869 8.10089 41.9223 8.30768 41.8835 10.9701C41.8448 13.206 41.8577 13.374 42.1162 13.8393C42.4781 14.4726 43.0467 14.8086 43.7576 14.8086C44.4038 14.8086 44.8691 14.5243 45.3214 13.8651C45.5928 13.4645 45.6057 13.3094 45.6057 11.1639C45.6057 8.66956 45.5153 8.2689 44.8174 7.75193C44.3262 7.39005 43.4474 7.33836 42.9046 7.62269Z" fill="#7C7C7C"/>
<path d="M52.2113 7.63823C51.3066 8.09058 51.229 8.31029 51.1903 10.9339C51.1386 13.5834 51.2549 14.0487 52.0303 14.5269C52.5861 14.8758 53.5425 14.8888 53.9819 14.5527C54.822 13.9324 54.8478 13.816 54.8478 11.1149C54.8478 8.69802 54.8349 8.62048 54.5376 8.19397C53.9948 7.44437 53.0384 7.21173 52.2113 7.63823Z" fill="#7C7C7C"/>
<path d="M61.3993 7.65176C60.5463 8.19458 60.4688 8.49184 60.4688 11.1413C60.4688 13.3255 60.4946 13.5452 60.7402 13.9588C61.2571 14.786 62.5625 15.0962 63.2733 14.5663C64.1005 13.9459 64.1522 13.7908 64.1909 11.3869C64.2426 8.87957 64.1134 8.27213 63.4155 7.781C62.8468 7.38035 61.9421 7.31573 61.3993 7.65176Z" fill="#7C7C7C"/>
<path d="M78.2399 23.1854C75.0088 23.599 71.4417 25.0206 68.6113 27.0497C64.8633 29.738 62.1621 33.2922 60.4561 37.7898C59.2154 41.0726 58.7242 41.693 55.8938 43.5928L53.9681 44.8723L50.7629 43.2568C46.64 41.1889 46.64 41.1889 44.0552 36.9497C41.7159 33.1112 40.5915 31.612 38.7304 29.8285C35.1116 26.3389 30.8336 24.2064 25.8966 23.418C24.5783 23.1983 21.037 23.1983 19.6929 23.418C17.3536 23.7799 14.3164 24.7234 12.5199 25.6281C10.1289 26.83 7.42775 28.9755 5.90268 30.8883C4.42931 32.7494 1.36626 37.1178 0.952681 37.9708C0.215997 39.4441 -0.0554129 40.8012 0.00920858 42.4943C0.07383 43.903 0.0867544 43.9418 1.85738 49.2795C2.8267 52.2262 3.84772 55.0437 4.10621 55.5478C5.15307 57.5898 7.85425 59.3605 9.89629 59.3605H10.3228V60.1101C10.3228 60.5236 10.0643 63.5092 9.7412 66.7402C9.41809 69.9713 8.99159 74.3785 8.77188 76.5498C7.71208 87.3545 7.20804 92.55 7.0271 94.2948C6.78154 96.7633 6.78154 97.2415 7.09172 98.4435C7.44067 99.8393 7.90595 100.628 9.03036 101.765C10.5554 103.316 12.0934 103.962 14.2647 103.962C16.3714 103.962 18.1032 103.251 19.5637 101.791C20.3391 101.003 21.3084 99.4387 21.3084 98.9605C21.3084 98.5986 21.5281 98.7925 21.6703 99.2707C21.903 100.046 22.743 101.222 23.6219 102.049C25.0565 103.368 26.6203 103.962 28.6107 103.962C30.769 103.962 32.2812 103.329 33.8579 101.752C34.9823 100.641 35.5381 99.6455 35.8353 98.2238C36.055 97.164 36.1197 92.4208 36.2489 65.8226L36.3265 50.1196L37.1924 50.9467C38.8984 52.5752 40.9275 53.9323 43.0212 54.837C43.6287 55.1084 45.6578 55.8192 47.5318 56.4396C50.8146 57.5381 50.9697 57.5769 52.0941 57.564C52.7274 57.564 53.296 57.5252 53.3607 57.4864C53.4124 57.4606 53.9423 57.5511 54.5368 57.6932C55.8421 58.0293 57.3026 57.9776 58.4011 57.564C59.3705 57.2021 63.713 54.6819 64.9538 53.7772C65.5095 53.3636 66.3883 52.6269 66.9053 52.1487L67.8359 51.2699V56.7756C67.8359 60.8726 67.7325 64.4268 67.4481 70.7985C66.9312 82.3269 66.8407 84.3173 66.5951 89.2802C66.4788 91.6195 66.3754 94.5274 66.3754 95.7423C66.3496 97.7973 66.3754 98.0041 66.6985 98.9346C67.125 100.227 67.6549 101.041 68.663 101.972C70.9765 104.143 74.298 104.608 77.1284 103.187C78.563 102.45 80.269 100.576 80.6568 99.2707C80.7343 98.9992 80.8377 98.7795 80.8894 98.7795C80.9411 98.7795 81.0445 98.9992 81.122 99.2707C81.5098 100.576 83.2028 102.45 84.6116 103.161C85.736 103.73 86.7182 103.962 88.0624 103.962C90.1303 103.962 91.6683 103.342 93.1804 101.907C94.5633 100.602 95.3258 98.9605 95.4421 96.9701C95.468 96.3627 95.1837 89.2414 94.8088 81.1379C94.434 73.0344 94.1239 66.3913 94.1368 66.3783C94.1368 66.3654 94.4082 66.443 94.7184 66.5464C95.5197 66.8307 96.9543 66.9082 97.8848 66.7402C100.224 66.3137 102.227 64.388 102.964 61.8807C103.119 61.3508 103.158 59.7223 103.184 52.7044C103.21 43.5282 103.145 41.3311 102.719 39.289C101.517 33.4731 97.7297 28.5877 92.3274 25.8607C90.2466 24.8138 86.421 23.6377 83.7586 23.2371C82.4015 23.0303 79.6874 23.0044 78.2399 23.1854ZM83.681 26.9851C84.9218 27.2048 85.4775 27.347 87.7134 28.032C90.6085 28.9238 92.8702 30.255 94.8476 32.2195C97.4842 34.856 98.9834 38.0871 99.3711 42.0161C99.4616 42.9078 99.5004 46.5008 99.4745 52.2521L99.4357 61.1052L99.0739 61.7256C98.1821 63.2377 96.2047 63.5738 94.8993 62.4235C93.9429 61.5964 94.0205 62.4364 93.9429 50.4427C93.8783 40.3101 93.8654 39.6121 93.6457 39.289C92.8702 38.1 90.9833 38.1517 90.4017 39.3795C90.2207 39.7672 90.1949 40.9563 90.1949 50.4168C90.1949 61.6868 90.1432 59.8128 91.0996 81.2025C91.7329 95.4192 91.7846 97.0218 91.6295 97.5646C91.1642 99.2707 89.2514 100.537 87.5713 100.266C86.253 100.046 85.0381 99.0251 84.6116 97.7973C84.3273 97.0089 84.3531 97.3062 83.7198 84.5628C82.7634 65.1247 82.7376 64.5819 82.5695 64.2588C81.9621 63.0827 80.6697 62.7854 79.7133 63.5867C79.4936 63.7676 79.2609 64.0778 79.1834 64.2588C79.0671 64.556 78.3304 78.1782 77.7229 91.2834C77.4903 96.311 77.374 97.4225 77.0121 98.1333C76.3013 99.5162 75.1639 100.253 73.7164 100.253C71.6744 100.24 70.201 98.87 70.0718 96.8538C70.0201 96.143 71.0282 72.75 71.4547 64.6982C71.5193 63.3411 71.5839 57.1504 71.5839 50.9338C71.5839 39.9094 71.571 39.638 71.3254 39.2244C70.55 37.9578 68.8052 38.0095 68.1331 39.3278C67.8488 39.8577 67.8359 40.0645 67.8359 42.3779V44.8465L66.789 46.3457C65.6387 48 63.9844 49.8353 62.8859 50.6753C62.2267 51.1923 58.259 53.5704 58.1814 53.5058C58.1685 53.4799 58.2331 53.1826 58.3494 52.8337C58.5821 52.0712 58.6079 50.2876 58.3882 49.5121C58.2202 48.8789 57.6903 47.7674 57.393 47.4313C57.2896 47.315 57.225 47.1858 57.2509 47.1729C57.2767 47.147 57.91 46.7076 58.6596 46.2035C61.503 44.2649 62.4464 43.0371 63.8164 39.4312C65.2122 35.7478 66.621 33.654 69.3092 31.2243C71.6356 29.1176 74.8667 27.5409 77.9168 27.011C79.4031 26.7525 82.2464 26.7396 83.681 26.9851ZM26.7366 27.3599C30.433 28.2258 33.7416 30.0482 36.3652 32.6718C37.7223 34.0289 38.6916 35.3213 40.2296 37.8415C42.6206 41.7447 43.1376 42.4943 44.0164 43.3731C45.3218 44.6655 45.8258 44.9757 49.9228 47.0048C53.5933 48.8013 54.2137 49.202 54.6014 49.9386C55.4285 51.5542 54.3171 53.6091 52.4818 53.8806C51.9648 53.9581 51.5125 53.8418 48.8501 52.9629C45.2184 51.7739 44.0293 51.2957 42.711 50.5202C40.2942 49.0856 39.299 48.0776 35.2408 42.882C33.509 40.6849 31.9063 38.7462 31.6608 38.5911C30.6139 37.8803 29.2052 38.5265 28.895 39.8577C28.7399 40.4781 29.0372 41.008 30.8207 43.2826L32.5913 45.5573L32.5138 66.9599C32.4104 89.9652 32.3328 96.8926 32.1519 97.6293C31.9839 98.3143 31.3894 99.1156 30.6915 99.6196C28.7399 101.003 25.9353 100.111 25.1082 97.849C24.9272 97.3579 24.9143 96.0008 24.9789 85.1444C25.0177 78.4626 25.0952 71.1603 25.134 68.9115C25.2116 65.0213 25.2116 64.8016 24.9531 64.2458C24.63 63.4962 23.777 63.031 23.0144 63.1731C22.3424 63.3024 21.7349 63.7935 21.5669 64.3751C21.4506 64.7887 20.0677 77.2864 18.4522 92.5113C17.9481 97.3062 17.9352 97.4483 17.5216 98.2626C16.5264 100.266 14.045 100.899 12.1968 99.6196C11.1758 98.9217 10.5942 97.8748 10.5813 96.7246C10.5813 96.4144 10.9302 92.6017 11.3567 88.2592C11.7832 83.9166 12.2744 78.902 12.4553 77.1314C12.6233 75.3478 13.011 71.5093 13.2954 68.6013C13.5797 65.6804 13.864 62.7725 13.9157 62.1392C13.9804 61.493 14.0191 56.2069 14.0191 50.3781C14.0062 40.4522 13.9933 39.7543 13.7736 39.3537C13.1144 38.1388 11.1499 38.1129 10.5167 39.3149C10.3486 39.6509 10.3228 40.7236 10.3228 47.664C10.3228 55.3539 10.3099 55.6124 10.0772 55.6124C9.71535 55.6124 8.79772 55.2635 8.3583 54.9533C7.53114 54.3588 7.27266 53.7901 5.47618 48.3877C3.84772 43.4765 3.7314 43.05 3.7314 42.1453C3.7314 40.9563 4.04159 39.8706 4.6361 38.9918C8.95282 32.633 10.8527 30.6556 14.2647 28.9496C15.6217 28.2775 17.3536 27.696 19.1759 27.3212C21.0499 26.9334 21.0499 26.9334 23.3117 26.9851C24.9272 27.0239 25.6768 27.1014 26.7366 27.3599Z" fill="#7C7C7C"/>
</svg>
