<svg width="59" height="59" viewBox="0 0 59 59" fill="none" xmlns="http://www.w3.org/2000/svg">
<path d="M27.8274 0.0186768C22.1267 0.292805 16.8763 2.09142 12.2776 5.3446C10.3503 6.70685 8.47061 8.42994 6.90416 10.2705C3.16987 14.6594 0.820195 20.1028 0.17963 25.8371C-0.514082 32.0889 0.811803 38.3547 3.97826 43.7673C5.7545 46.8051 8.13494 49.5604 10.907 51.7842C14.9014 54.9926 19.7099 57.0961 24.7673 57.8486C26.2442 58.0695 27.4442 58.1535 29.047 58.1562C30.5379 58.1562 31.4247 58.1059 32.7813 57.9325C38.3898 57.2276 43.6905 54.8751 47.9982 51.18C52.9353 46.945 56.3144 41.2106 57.5899 34.9029C57.9927 32.9225 58.1634 31.177 58.1634 29.0819C58.1634 27.9294 58.141 27.356 58.0515 26.3965C57.5312 20.7238 55.3661 15.3643 51.7913 10.8999C50.4906 9.2747 48.9073 7.69147 47.271 6.37957C42.9352 2.89982 37.6793 0.731968 32.1911 0.158539C30.882 0.0242729 28.9995 -0.0372696 27.8274 0.0186768ZM31.1309 0.729172C32.5463 0.841061 33.8331 1.02288 35.089 1.29421C39.9031 2.33478 44.2807 4.56417 48.0122 7.87609C48.4877 8.29847 49.5563 9.35302 50.0262 9.86492C54.1941 14.4048 56.7787 20.1671 57.3661 26.2287C57.4752 27.3476 57.4948 27.7392 57.4948 29.0819C57.4948 30.4273 57.4752 30.8329 57.3661 31.935C56.7675 38.019 54.1941 43.7561 50.0262 48.2988C49.5563 48.8107 48.4877 49.8653 48.0122 50.2876C44.7702 53.166 41.0499 55.2192 36.9352 56.408C35.0331 56.9534 33.1002 57.2891 30.8932 57.4513C30.2638 57.4989 27.9113 57.4989 27.2848 57.4513C23.2372 57.152 19.805 56.2206 16.3308 54.4807C13.4105 53.0177 10.8231 51.096 8.49579 48.6625C5.12793 45.1408 2.71112 40.7603 1.5251 36.033C1.10551 34.3574 0.870545 32.8637 0.719495 30.9001C0.671942 30.2847 0.671942 27.8791 0.719495 27.2637C0.814601 26.0301 0.929287 25.0874 1.10551 24.0888C1.95307 19.2972 4.00624 14.8496 7.12794 11.0398C8.10977 9.84254 9.54754 8.38798 10.7951 7.33063C12.4595 5.92083 14.3532 4.67326 16.3336 3.68025C18.8343 2.42709 21.391 1.57673 24.0959 1.09841C25.3435 0.877426 26.4316 0.759941 27.9421 0.678822C28.412 0.653648 30.5967 0.69001 31.1309 0.729172Z" fill="#E1C561"/>
<path d="M20.6735 11.1847C18.984 11.4029 17.5826 12.3791 16.8497 13.8533C16.0777 15.4001 16.0693 17.4085 16.8273 18.9442C17.2665 19.8337 17.8903 20.4939 18.7294 20.9582L18.9868 21.1009L18.7462 21.1596C17.9099 21.3638 16.7994 21.8925 15.8063 22.5526C14.5588 23.3862 13.5769 24.3373 12.7294 25.5317C10.6035 28.5303 9.96293 32.8436 11.0566 36.7765C11.9825 40.1024 14.2007 43.1318 17.149 45.1039C19.2162 46.4857 21.4791 47.3081 23.9603 47.5794C24.4134 47.6298 26.3127 47.6298 26.8414 47.5794C28.8862 47.3864 30.6205 46.9165 32.268 46.1053C33.5687 45.4647 34.5813 44.757 35.566 43.7976C37.6807 41.736 38.9338 39.2017 39.3506 36.1332C39.4205 35.6045 39.4205 34.1276 39.3506 33.6157C39.1884 32.4688 38.9058 31.5205 38.4247 30.5247C37.745 29.1149 36.7799 27.9121 35.5408 26.9275C34.2848 25.9289 32.7296 25.2156 31.2442 24.9554C31.0736 24.9247 30.9701 24.8939 30.9785 24.8771C31.0988 24.589 34.475 17.0365 34.489 17.0225C34.5086 17.0001 43.8429 36.9919 44.022 37.4339C44.3045 38.136 44.3269 38.8045 44.0863 39.3192C43.9157 39.6829 43.636 39.9598 43.2611 40.136L43.0933 40.2143L46.4192 40.2171H49.7451L49.5521 40.0801C48.8724 39.6045 47.8989 38.508 47.3367 37.5933C47.236 37.4283 44.3688 31.6296 40.9646 24.7093C37.5576 17.7862 34.7631 12.1134 34.752 12.1022C34.738 12.091 33.9324 13.8784 32.9561 16.0715C31.9799 18.2673 30.7044 21.1372 30.1197 22.4463L29.0568 24.8324H28.9141C28.8358 24.8324 28.5953 24.852 28.3799 24.8743C24.3183 25.3051 21.5686 27.7415 21.0372 31.3863C20.9756 31.8059 20.9169 32.7429 20.9448 32.8548C20.956 32.9024 20.9868 32.8185 21.0539 32.5527C21.4372 31.0254 22.1756 29.7247 23.2498 28.6786C23.6721 28.2702 23.9575 28.0352 24.4358 27.7191C25.3924 27.0785 26.5253 26.631 27.7225 26.4156C28.2764 26.3177 28.405 26.3037 28.3855 26.3485C28.1841 26.852 23.8456 36.5332 23.6833 36.8465C23.1239 37.9234 22.4833 38.8633 21.8875 39.487C21.5546 39.8367 21.3253 40.0213 21.0791 40.136L20.9113 40.2171H23.8204L26.7295 40.2143L26.6204 40.1528C25.7141 39.6409 25.2554 39.0451 25.2134 38.3234C25.191 37.9486 25.2861 37.5318 25.4791 37.1849C25.5239 37.1066 26.6344 34.6283 27.9491 31.6772L30.3379 26.3121L30.4918 26.3289C31.11 26.3988 31.9687 26.659 32.5757 26.9555C33.2275 27.2743 33.7366 27.6352 34.2792 28.1611C35.1408 28.9974 35.8121 30.066 36.3072 31.3835C36.6205 32.2254 36.8583 33.1653 37.0121 34.1751C37.0904 34.6982 37.0988 35.6017 37.0261 36.1416C36.7632 38.1584 35.7897 40.1192 34.2568 41.7192C32.5981 43.4479 30.4498 44.6004 28.0582 45.0395C27.3225 45.1738 26.9085 45.2074 25.9603 45.2102C25.0372 45.2102 24.7211 45.1878 23.9323 45.0703C20.542 44.5584 17.5574 42.8185 15.5014 40.1472C14.3434 38.6451 13.5098 36.8409 13.107 34.9639C12.542 32.3457 12.7518 29.8002 13.7028 27.6408C14.2427 26.4184 14.9616 25.3638 15.9462 24.3457C17.3644 22.8799 19.3057 21.6771 20.9085 21.2659L21.2693 21.1736L21.1043 21.14C20.3966 20.9918 19.4959 20.4407 18.8134 19.7386C18.1168 19.0197 17.6861 18.2533 17.5098 17.4197C17.4287 17.0393 17.4231 16.3736 17.4959 16.0351C17.6133 15.498 17.8203 15.0057 18.1168 14.5637C18.8861 13.4141 20.0022 12.7567 21.44 12.6057C21.8148 12.5665 22.6484 12.5889 23.0372 12.6504C24.0749 12.8099 25.0763 13.1903 25.8987 13.7302L25.9882 13.7889V12.7483V11.7106L25.8568 11.8868C25.7812 11.9847 25.6638 12.0994 25.5854 12.1469C25.4624 12.2225 25.4232 12.2309 25.2358 12.2309C24.998 12.2281 24.8162 12.1581 24.4861 11.9455C23.9798 11.6183 23.026 11.3078 22.1756 11.1959C21.8204 11.1511 20.9896 11.1427 20.6735 11.1847Z" fill="#E1C561"/>
</svg>
